<svg width="24" height="24" viewBox="0 0 24 24" fill="none" xmlns="http://www.w3.org/2000/svg">
<path fill-rule="evenodd" clip-rule="evenodd" d="M12 0C5.37258 0 0 5.37258 0 12C0 18.6274 5.37258 24 12 24C18.6274 24 24 18.6274 24 12C24 5.37258 18.6274 0 12 0ZM12.9767 15.7881C12.8584 15.9128 12.6273 15.938 12.6273 15.938H11.8623C11.8623 15.938 10.1745 16.0376 8.68762 14.5185C7.06615 12.8611 5.63438 9.57276 5.63438 9.57276C5.63438 9.57276 5.55174 9.35706 5.64127 9.2532C5.74206 9.13583 6.01689 9.12845 6.01689 9.12845L7.84558 9.11678C7.84558 9.11678 8.01775 9.14443 8.14108 9.23354C8.24312 9.30728 8.30009 9.44432 8.30009 9.44432C8.30009 9.44432 8.59559 10.1781 8.98687 10.8418C9.75127 12.1378 10.1069 12.4211 10.3661 12.2822C10.7442 12.08 10.6309 10.4503 10.6309 10.4503C10.6309 10.4503 10.6378 9.85913 10.4406 9.59549C10.2878 9.39147 9.99981 9.33186 9.87273 9.31527C9.76943 9.30175 9.93846 9.067 10.1576 8.96192C10.4869 8.80398 11.0679 8.79477 11.7546 8.80153C12.2899 8.80706 12.4439 8.83963 12.653 8.8894C13.1383 9.00435 13.1232 9.37275 13.0905 10.1678C13.0807 10.4056 13.0693 10.6816 13.0693 11.0003C13.0693 11.0719 13.0672 11.1483 13.065 11.2268C13.0537 11.6342 13.0407 12.1006 13.3141 12.2742C13.4544 12.3627 13.7968 12.2871 14.6539 10.859C15.0602 10.1818 15.3644 9.38594 15.3644 9.38594C15.3644 9.38594 15.4314 9.24399 15.5347 9.18315C15.6405 9.12108 15.7833 9.14013 15.7833 9.14013L17.7077 9.12845C17.7077 9.12845 18.2862 9.06024 18.3795 9.31711C18.4778 9.58566 18.1635 10.2137 17.3772 11.2424C16.6313 12.2185 16.2683 12.5779 16.3016 12.8957C16.326 13.128 16.5619 13.338 17.0147 13.7503C17.9599 14.6117 18.2132 15.0649 18.2741 15.1738C18.2792 15.1828 18.2829 15.1895 18.2856 15.1938C18.7094 15.8839 17.8154 15.938 17.8154 15.938L16.1057 15.9614C16.1057 15.9614 15.7388 16.0327 15.2555 15.707C15.0023 15.5365 14.7549 15.2581 14.5193 14.9929C14.1594 14.5879 13.827 14.2138 13.5432 14.3022C13.0668 14.4509 13.0812 15.4581 13.0812 15.4581C13.0812 15.4581 13.085 15.6738 12.9767 15.7881Z" fill="#F8DE67"/>
</svg>
