<svg width="24" height="24" viewBox="0 0 24 24" fill="none" xmlns="http://www.w3.org/2000/svg">
<path fill-rule="evenodd" clip-rule="evenodd" d="M12 24C18.6274 24 24 18.6274 24 12C24 5.37258 18.6274 0 12 0C5.37258 0 0 5.37258 0 12C0 18.6274 5.37258 24 12 24ZM9.8 17.4999C10.0919 17.4999 10.2252 17.3701 10.3864 17.2131L10.4 17.1999L11.8413 15.7984L14.8399 18.0138C15.3918 18.3183 15.7901 18.1607 15.9275 17.5015L17.896 8.22519C18.0976 7.41717 17.588 7.05069 17.0601 7.29037L5.50108 11.7475C4.71207 12.0639 4.71667 12.5041 5.35726 12.7003L8.32356 13.6261L15.1909 9.2936C15.515 9.09701 15.8126 9.2027 15.5684 9.41944L10.0042 14.4407L10.0042 14.4406L10.0042 14.4407L10.0039 14.4409L10.0042 14.4411L9.8 17.4999Z" fill="#F8DE67"/>
</svg>
