<svg width="49" height="80" viewBox="0 0 49 80" fill="none" xmlns="http://www.w3.org/2000/svg">
<path d="M20.7198 73.6284C20.5275 73.5267 20.415 73.3147 20.4305 73.093C20.5158 71.9556 19.7799 70.8866 18.6388 70.5808C17.4977 70.2751 16.3302 70.8403 15.831 71.8606C15.7336 72.0603 15.5317 72.1818 15.3128 72.1796C14.1436 72.1423 13.0718 72.9589 12.8515 74.1794C12.644 75.328 13.3096 76.4722 14.4006 76.8712C14.7556 76.9976 15.1134 77.0433 15.4607 77.011C16.4189 76.9227 17.3844 77.1815 18.1701 77.7369C18.4547 77.9386 18.7859 78.0838 19.1581 78.1459C20.3083 78.3475 21.4525 77.6819 21.8456 76.5893C22.2708 75.4238 21.7451 74.1791 20.7198 73.6284Z" fill="#454545"/>
<path d="M16.9473 69.7612C17.7549 69.8546 18.5362 68.8365 18.6924 67.4871C18.8485 66.1376 18.3203 64.968 17.5127 64.8745C16.705 64.7811 15.9237 65.7992 15.7676 67.1486C15.6115 68.4981 16.1396 69.6677 16.9473 69.7612Z" fill="#454545"/>
<path d="M13.9176 71.5228C14.6567 71.3633 15.0705 70.375 14.8418 69.3153C14.6131 68.2556 13.8284 67.526 13.0893 67.6855C12.3502 67.845 11.9364 68.8334 12.1651 69.893C12.3938 70.9527 13.1784 71.6824 13.9176 71.5228Z" fill="#454545"/>
<path d="M22.8401 69.0538C23.3796 67.8071 23.212 66.5347 22.4659 66.2118C21.7197 65.8889 20.6775 66.6378 20.138 67.8845C19.5985 69.1312 19.766 70.4036 20.5122 70.7265C21.2584 71.0494 22.3006 70.3005 22.8401 69.0538Z" fill="#454545"/>
<path d="M24.5933 73.2215C25.3212 72.4182 25.457 71.3554 24.8967 70.8476C24.3363 70.3399 23.292 70.5795 22.5641 71.3828C21.8362 72.1862 21.7003 73.249 22.2607 73.7567C22.821 74.2645 23.8654 74.0248 24.5933 73.2215Z" fill="#454545"/>
<path d="M11.1915 52.2588C11.016 52.1302 10.9355 51.904 10.9831 51.687C11.2329 50.5741 10.6603 49.4094 9.57579 48.941C8.4913 48.4725 7.254 48.8619 6.61175 49.7988C6.48634 49.9821 6.26891 50.073 6.05264 50.039C4.90137 49.832 3.72219 50.4841 3.32665 51.6595C2.95438 52.7658 3.44645 53.9946 4.46785 54.548C4.80065 54.7248 5.148 54.822 5.49637 54.8405C6.45717 54.8926 7.37481 55.289 8.07135 55.9528C8.32362 56.1938 8.63013 56.3856 8.98936 56.5011C10.098 56.8678 11.3268 56.3758 11.8747 55.352C12.4649 54.2607 12.1258 52.9527 11.1915 52.2588Z" fill="#454545" fill-opacity="0.87"/>
<path d="M8.02127 47.884C8.80675 48.0939 9.72782 47.2002 10.0785 45.8879C10.4293 44.5755 10.0768 43.3415 9.29137 43.1316C8.50589 42.9216 7.58482 43.8153 7.23409 45.1277C6.88337 46.4401 7.2358 47.6741 8.02127 47.884Z" fill="#454545" fill-opacity="0.87"/>
<path d="M4.7681 49.1864C5.52258 49.1361 6.07571 48.2184 6.00353 47.1368C5.93136 46.0551 5.26122 45.2191 4.50674 45.2694C3.75226 45.3198 3.19913 46.2374 3.27131 47.3191C3.34348 48.4007 4.01362 49.2368 4.7681 49.1864Z" fill="#454545" fill-opacity="0.87"/>
<path d="M13.9543 48.0411C14.6694 46.8862 14.6887 45.6029 13.9974 45.1749C13.3061 44.7469 12.1661 45.3363 11.451 46.4913C10.7359 47.6462 10.7166 48.9295 11.4079 49.3575C12.0992 49.7854 13.2393 49.1961 13.9543 48.0411Z" fill="#454545" fill-opacity="0.87"/>
<path d="M15.0824 52.4196C15.9194 51.7306 16.2083 50.6989 15.7278 50.115C15.2472 49.5312 14.1792 49.6164 13.3422 50.3053C12.5052 50.9943 12.2162 52.026 12.6968 52.6099C13.1773 53.1937 14.2454 53.1085 15.0824 52.4196Z" fill="#454545" fill-opacity="0.87"/>
<path d="M32.0875 41.0647C31.912 40.9361 31.8315 40.71 31.8791 40.4929C32.1289 39.38 31.5563 38.2153 30.4718 37.7469C29.3873 37.2784 28.15 37.6678 27.5077 38.6047C27.3823 38.7881 27.1649 38.8789 26.9486 38.8449C25.7974 38.6379 24.6182 39.29 24.2226 40.4654C23.8504 41.5717 24.3424 42.8005 25.3638 43.3539C25.6967 43.5307 26.044 43.6279 26.3924 43.6464C27.3532 43.6985 28.2708 44.0949 28.9673 44.7587C29.2196 44.9997 29.5261 45.1915 29.8854 45.307C30.994 45.6738 32.2228 45.1817 32.7707 44.1579C33.3609 43.0666 33.0218 41.7586 32.0875 41.0647Z" fill="#454545" fill-opacity="0.69"/>
<path d="M28.9173 36.6899C29.7027 36.8998 30.6238 36.0061 30.9745 34.6938C31.3253 33.3814 30.9728 32.1474 30.1874 31.9375C29.4019 31.7275 28.4808 32.6212 28.1301 33.9336C27.7794 35.246 28.1318 36.48 28.9173 36.6899Z" fill="#454545" fill-opacity="0.69"/>
<path d="M25.6641 37.9923C26.4186 37.942 26.9717 37.0243 26.8995 35.9427C26.8274 34.861 26.1572 34.025 25.4027 34.0754C24.6483 34.1257 24.0951 35.0434 24.1673 36.125C24.2395 37.2067 24.9096 38.0427 25.6641 37.9923Z" fill="#454545" fill-opacity="0.69"/>
<path d="M34.8508 36.847C35.5659 35.6921 35.5852 34.4088 34.8939 33.9808C34.2026 33.5529 33.0626 34.1422 32.3475 35.2972C31.6324 36.4521 31.6131 37.7354 32.3044 38.1634C32.9957 38.5913 34.1357 38.002 34.8508 36.847Z" fill="#454545" fill-opacity="0.69"/>
<path d="M35.9789 41.2252C36.8159 40.5363 37.1048 39.5045 36.6243 38.9207C36.1437 38.3369 35.0757 38.4221 34.2387 39.111C33.4017 39.7999 33.1127 40.8317 33.5932 41.4155C34.0738 41.9993 35.1419 41.9142 35.9789 41.2252Z" fill="#454545" fill-opacity="0.69"/>
<path d="M20.1465 20.1687C19.9711 20.0401 19.8906 19.814 19.9382 19.5969C20.188 18.484 19.6154 17.3193 18.5309 16.8509C17.4464 16.3824 16.2091 16.7718 15.5668 17.7087C15.4414 17.8921 15.224 17.9829 15.0077 17.9489C13.8564 17.742 12.6773 18.3941 12.2817 19.5694C11.9095 20.6757 12.4015 21.9045 13.4229 22.4579C13.7557 22.6347 14.1031 22.7319 14.4514 22.7504C15.4122 22.8025 16.3299 23.1989 17.0264 23.8627C17.2787 24.1037 17.5852 24.2955 17.9444 24.4111C19.0531 24.7778 20.2819 24.2857 20.8298 23.2619C21.4199 22.1706 21.0808 20.8626 20.1465 20.1687Z" fill="#454545" fill-opacity="0.35"/>
<path d="M16.9764 15.7939C17.7618 16.0038 18.6829 15.1101 19.0336 13.7978C19.3844 12.4854 19.0319 11.2514 18.2464 11.0415C17.461 10.8315 16.5399 11.7253 16.1892 13.0376C15.8384 14.35 16.1909 15.584 16.9764 15.7939Z" fill="#454545" fill-opacity="0.35"/>
<path d="M13.7232 17.0964C14.4777 17.046 15.0308 16.1283 14.9586 15.0467C14.8864 13.965 14.2163 13.129 13.4618 13.1794C12.7073 13.2297 12.1542 14.1474 12.2264 15.229C12.2986 16.3107 12.9687 17.1467 13.7232 17.0964Z" fill="#454545" fill-opacity="0.35"/>
<path d="M22.9094 15.951C23.6245 14.7961 23.6438 13.5128 22.9525 13.0848C22.2612 12.6569 21.1211 13.2462 20.4061 14.4012C19.691 15.5561 19.6717 16.8394 20.363 17.2674C21.0543 17.6954 22.1943 17.106 22.9094 15.951Z" fill="#454545" fill-opacity="0.35"/>
<path d="M24.0379 20.3295C24.8749 19.6406 25.1639 18.6088 24.6834 18.025C24.2028 17.4411 23.1347 17.5263 22.2977 18.2152C21.4607 18.9042 21.1718 19.9359 21.6523 20.5198C22.1329 21.1036 23.201 21.0184 24.0379 20.3295Z" fill="#454545" fill-opacity="0.35"/>
<path d="M41.0425 11.2134C40.8671 11.0848 40.7866 10.8586 40.8342 10.6416C41.084 9.52864 40.5114 8.36401 39.4269 7.89555C38.3424 7.42708 37.1051 7.81651 36.4628 8.75334C36.3374 8.93674 36.12 9.0276 35.9037 8.99357C34.7524 8.78663 33.5733 9.43873 33.1777 10.6141C32.8055 11.7204 33.2975 12.9492 34.3189 13.5026C34.6517 13.6794 34.9991 13.7766 35.3474 13.7951C36.3082 13.8472 37.2259 14.2436 37.9224 14.9074C38.1747 15.1484 38.4812 15.3402 38.8404 15.4557C39.9491 15.8224 41.1779 15.3304 41.7258 14.3066C42.3159 13.2153 41.9768 11.9073 41.0425 11.2134Z" fill="#454545" fill-opacity="0.13"/>
<path d="M37.8723 6.83861C38.6578 7.04853 39.5789 6.15482 39.9296 4.84247C40.2803 3.53011 39.9279 2.29606 39.1424 2.08614C38.357 1.87623 37.4359 2.76993 37.0852 4.08229C36.7344 5.39464 37.0869 6.62869 37.8723 6.83861Z" fill="#454545" fill-opacity="0.13"/>
<path d="M34.6192 8.14103C35.3737 8.09069 35.9268 7.17303 35.8546 6.09138C35.7824 5.00973 35.1123 4.17369 34.3578 4.22403C33.6033 4.27437 33.0502 5.19204 33.1224 6.27369C33.1946 7.35533 33.8647 8.19137 34.6192 8.14103Z" fill="#454545" fill-opacity="0.13"/>
<path d="M43.8059 6.99572C44.521 5.84074 44.5403 4.5575 43.849 4.12952C43.1577 3.70153 42.0176 4.29087 41.3026 5.44585C40.5875 6.60082 40.5682 7.88406 41.2595 8.31205C41.9508 8.74003 43.0908 8.15069 43.8059 6.99572Z" fill="#454545" fill-opacity="0.13"/>
<path d="M44.9339 11.3742C45.7709 10.6852 46.0599 9.65347 45.5794 9.06964C45.0988 8.48581 44.0307 8.571 43.1937 9.25992C42.3567 9.94884 42.0678 10.9806 42.5483 11.5644C43.0289 12.1483 44.0969 12.0631 44.9339 11.3742Z" fill="#454545" fill-opacity="0.13"/>
</svg>
