<svg width="14" height="17" viewBox="0 0 14 17" fill="none" xmlns="http://www.w3.org/2000/svg">
<path fill-rule="evenodd" clip-rule="evenodd" d="M7 0C8.72367 0.000834247 10.3765 0.730788 11.5953 2.02946C12.8141 3.32813 13.4992 5.08926 13.5 6.92586C13.3782 8.33602 12.9147 9.6883 12.1551 10.8503C10.8364 12.9718 9.31601 14.9428 7.61809 16.7322C7.45269 16.9039 7.23091 17 7 17C6.76909 17 6.54731 16.9039 6.38191 16.7322C4.68398 14.9428 3.16362 12.9718 1.84491 10.8503C1.08526 9.6883 0.621833 8.33602 0.500001 6.92586C0.500784 5.08926 1.18585 3.32813 2.40467 2.02946C3.62349 0.730788 5.27633 0.000834247 7 0ZM7 3.77774C7.52592 3.77774 8.04003 3.94391 8.47731 4.25524C8.9146 4.56656 9.25542 5.00907 9.45668 5.52679C9.65794 6.0445 9.7106 6.61419 9.608 7.16379C9.5054 7.7134 9.25214 8.21825 8.88026 8.61449C8.50838 9.01074 8.03458 9.28058 7.51876 9.38991C7.00295 9.49923 6.4683 9.44312 5.98241 9.22868C5.49653 9.01423 5.08123 8.65108 4.78905 8.18514C4.49686 7.71921 4.34091 7.17142 4.34091 6.61104C4.34122 5.85971 4.62148 5.13924 5.12009 4.60796C5.61869 4.07669 6.29486 3.77807 7 3.77774Z" fill="#393939"/>
</svg>
